<?xml version="1.0" encoding="UTF-8"?>
<!DOCTYPE svg PUBLIC "-//W3C//DTD SVG 1.1//EN" "http://www.w3.org/Graphics/SVG/1.1/DTD/svg11.dtd">
<!-- Creator: CorelDRAW -->
<svg xmlns="http://www.w3.org/2000/svg" xml:space="preserve" width="2048px" height="2048px" style="shape-rendering:geometricPrecision; text-rendering:geometricPrecision; image-rendering:optimizeQuality; fill-rule:evenodd; clip-rule:evenodd"
viewBox="0 0 2048 2048"
 xmlns:xlink="http://www.w3.org/1999/xlink">
 <defs>
  <style type="text/css">
   <![CDATA[
    .fil2 {fill:none}
    .fil4 {fill:none;fill-rule:nonzero}
    .fil1 {fill:#546E7A}
    .fil0 {fill:#90A4AE}
    .fil14 {fill:#AAB2B1}
    .fil11 {fill:#BDBDBD}
    .fil13 {fill:#CAD1D0}
    .fil10 {fill:#E0E0E0}
    .fil9 {fill:#E59B49}
    .fil8 {fill:#E9AE58}
    .fil6 {fill:#FBA94D}
    .fil5 {fill:#FFBE5E}
    .fil15 {fill:#A52120;fill-rule:nonzero}
    .fil12 {fill:#B71C1C;fill-rule:nonzero}
    .fil7 {fill:#E9BB77;fill-rule:nonzero}
    .fil3 {fill:#FFCC80;fill-rule:nonzero}
   ]]>
  </style>
   <clipPath id="id0">
    <path d="M1024 0c565.539,0 1024,458.461 1024,1024 0,565.539 -458.461,1024 -1024,1024 -565.539,0 -1024,-458.461 -1024,-1024 0,-565.539 458.461,-1024 1024,-1024z"/>
   </clipPath>
 </defs>
 <g id="Layer_x0020_1">
  <metadata id="CorelCorpID_0Corel-Layer"/>
  <path class="fil0" d="M1024 0c565.539,0 1024,458.461 1024,1024 0,565.539 -458.461,1024 -1024,1024 -565.539,0 -1024,-458.461 -1024,-1024 0,-565.539 458.461,-1024 1024,-1024z"/>
  <g style="clip-path:url(#id0)">
   <g id="_478233112">
    <g>
     <path id="_3968280641" class="fil1" d="M2467.8 2686.33l0 0zm-1135.88 -1135.88l0 0z"/>
     <polygon id="_396820264" class="fil1" points="1559.43,1324.99 2695.31,2460.87 2696.67,2462.34 2697.99,2463.84 2699.26,2465.36 2700.48,2466.91 2701.66,2468.48 2702.79,2470.08 2703.88,2471.7 2704.92,2473.34 2705.91,2475 2706.86,2476.69 2707.77,2478.39 2708.62,2480.11 2709.43,2481.85 2710.2,2483.61 2710.92,2485.38 2711.59,2487.17 2712.22,2488.97 2712.81,2490.79 2713.34,2492.62 2713.83,2494.46 2714.28,2496.31 2714.68,2498.17 2715.03,2500.03 2715.34,2501.91 2715.6,2503.79 2715.82,2505.68 2715.99,2507.58 2716.12,2509.47 2716.2,2511.38 2716.24,2513.28 2716.23,2515.19 1580.35,1379.3 1580.36,1377.4 1580.32,1375.49 1580.24,1373.59 1580.11,1371.69 1579.94,1369.8 1579.72,1367.91 1579.46,1366.03 1579.15,1364.15 1578.8,1362.28 1578.4,1360.42 1577.95,1358.57 1577.46,1356.74 1576.92,1354.91 1576.34,1353.09 1575.71,1351.29 1575.04,1349.5 1574.32,1347.73 1573.55,1345.97 1572.74,1344.23 1571.89,1342.51 1570.98,1340.81 1570.03,1339.12 1569.04,1337.46 1568,1335.81 1566.91,1334.2 1565.78,1332.6 1564.6,1331.03 1563.38,1329.48 1562.11,1327.95 1560.79,1326.46 "/>
     <polygon id="_396817888" class="fil1" points="1580.35,1379.3 2716.23,2515.19 2716.17,2517.06 2716.07,2518.93 2715.93,2520.81 2715.75,2522.68 2715.51,2524.55 2715.24,2526.41 2714.92,2528.27 2714.56,2530.13 2714.15,2531.97 2713.7,2533.82 2713.2,2535.65 2712.66,2537.47 2712.08,2539.29 2711.45,2541.09 2710.78,2542.88 2710.06,2544.66 2709.3,2546.43 2708.5,2548.18 2707.65,2549.92 2706.76,2551.64 2705.82,2553.34 2704.84,2555.03 2703.82,2556.7 2702.75,2558.35 2701.64,2559.97 2700.49,2561.58 2699.29,2563.16 2698.05,2564.72 2696.76,2566.26 2695.43,2567.77 2694.06,2569.26 2692.64,2570.72 1556.76,1434.83 1558.18,1433.38 1559.55,1431.89 1560.88,1430.38 1562.16,1428.84 1563.41,1427.28 1564.61,1425.7 1565.76,1424.09 1566.87,1422.46 1567.94,1420.82 1568.96,1419.15 1569.94,1417.46 1570.88,1415.76 1571.77,1414.04 1572.62,1412.3 1573.42,1410.55 1574.18,1408.78 1574.89,1407 1575.57,1405.21 1576.2,1403.41 1576.78,1401.59 1577.32,1399.77 1577.81,1397.93 1578.27,1396.09 1578.67,1394.24 1579.04,1392.39 1579.36,1390.53 1579.63,1388.66 1579.86,1386.8 1580.05,1384.93 1580.19,1383.05 1580.29,1381.18 "/>
     <polygon id="_396799024" class="fil1" points="1556.76,1434.83 2692.64,2570.72 2635.28,2628.33 1499.4,1492.44 "/>
     <polygon id="_396807640" class="fil1" points="1499.4,1492.44 2635.28,2628.33 2579.07,2684.78 1443.19,1548.9 "/>
     <polygon id="_396812344" class="fil1" points="1443.19,1548.9 2579.07,2684.78 2577.62,2686.2 2576.15,2687.58 2574.65,2688.91 2573.12,2690.19 2571.57,2691.44 2570,2692.64 2568.4,2693.8 2566.79,2694.91 2565.15,2695.98 2563.49,2697.01 2561.82,2697.99 2560.12,2698.93 2558.41,2699.83 2556.68,2700.68 2554.94,2701.49 2553.18,2702.25 2551.41,2702.97 2549.63,2703.65 2547.83,2704.28 2546.03,2704.87 2544.21,2705.42 2542.38,2705.92 2540.55,2706.38 2538.71,2706.79 2536.86,2707.16 2535,2707.49 2533.15,2707.77 2531.28,2708.01 2529.42,2708.21 2527.55,2708.36 2525.68,2708.46 2523.81,2708.53 1387.93,1572.64 1389.8,1572.58 1391.67,1572.47 1393.54,1572.32 1395.4,1572.13 1397.26,1571.89 1399.12,1571.61 1400.98,1571.28 1402.82,1570.91 1404.67,1570.5 1406.5,1570.04 1408.33,1569.54 1410.14,1568.99 1411.95,1568.4 1413.75,1567.77 1415.53,1567.09 1417.3,1566.37 1419.06,1565.6 1420.8,1564.8 1422.53,1563.94 1424.24,1563.05 1425.94,1562.11 1427.61,1561.13 1429.27,1560.1 1430.91,1559.03 1432.52,1557.91 1434.12,1556.76 1435.69,1555.56 1437.24,1554.31 1438.77,1553.02 1440.27,1551.69 1441.74,1550.32 "/>
     <polygon id="_396800848" class="fil1" points="1387.93,1572.64 2523.81,2708.53 2521.9,2708.54 2520,2708.52 2518.09,2708.44 2516.19,2708.33 2514.29,2708.16 2512.4,2707.95 2510.51,2707.69 2508.63,2707.39 2506.76,2707.04 2504.89,2706.65 2503.04,2706.21 2501.19,2705.72 2499.36,2705.19 2497.53,2704.62 2495.73,2703.99 2493.93,2703.32 2492.15,2702.61 2490.38,2701.84 2488.63,2701.03 2486.9,2700.18 2485.19,2699.28 2483.49,2698.33 2481.82,2697.34 2480.16,2696.3 2478.53,2695.21 2476.92,2694.08 2475.33,2692.9 2473.77,2691.68 2472.24,2690.41 2470.73,2689.09 2469.25,2687.73 1333.37,1551.84 1334.85,1553.21 1336.36,1554.53 1337.89,1555.8 1339.45,1557.02 1341.04,1558.2 1342.65,1559.33 1344.28,1560.42 1345.94,1561.46 1347.61,1562.45 1349.31,1563.4 1351.02,1564.3 1352.75,1565.15 1354.5,1565.96 1356.27,1566.72 1358.05,1567.44 1359.84,1568.11 1361.65,1568.73 1363.48,1569.31 1365.31,1569.84 1367.16,1570.33 1369.01,1570.77 1370.88,1571.16 1372.75,1571.51 1374.63,1571.81 1376.52,1572.07 1378.41,1572.28 1380.31,1572.44 1382.21,1572.56 1384.11,1572.64 1386.02,1572.66 "/>
     <polygon id="_396819520" class="fil1" points="1238.18,1457.08 2374.06,2592.96 2373.72,2594.45 2373.36,2595.93 2372.99,2597.41 2372.61,2598.88 2372.21,2600.36 2371.79,2601.83 2371.37,2603.29 2370.93,2604.75 2370.48,2606.2 2370.01,2607.66 2369.53,2609.1 2369.03,2610.55 2368.53,2611.99 2368.01,2613.42 2367.47,2614.85 2366.93,2616.27 2366.36,2617.69 2365.79,2619.1 2365.2,2620.51 2364.6,2621.91 2363.99,2623.31 2363.36,2624.7 2362.72,2626.09 2362.07,2627.47 2361.4,2628.85 2360.72,2630.22 2360.03,2631.58 2359.33,2632.94 2358.61,2634.29 2357.88,2635.63 2357.13,2636.97 2356.38,2638.3 1220.5,1502.42 1221.25,1501.09 1222,1499.75 1222.73,1498.4 1223.45,1497.05 1224.15,1495.7 1224.84,1494.33 1225.52,1492.96 1226.19,1491.59 1226.84,1490.21 1227.48,1488.82 1228.11,1487.43 1228.72,1486.03 1229.32,1484.63 1229.91,1483.22 1230.48,1481.81 1231.04,1480.39 1231.59,1478.96 1232.12,1477.54 1232.65,1476.1 1233.15,1474.66 1233.65,1473.22 1234.13,1471.77 1234.59,1470.32 1235.05,1468.87 1235.49,1467.41 1235.91,1465.94 1236.33,1464.47 1236.72,1463 1237.11,1461.53 1237.48,1460.05 1237.84,1458.56 "/>
     <polygon id="_396815872" class="fil1" points="1220.5,1502.42 2356.38,2638.3 2356.39,2638.31 2356.4,2638.32 2356.4,2638.34 2356.41,2638.35 2356.42,2638.36 2356.43,2638.37 2356.44,2638.39 2356.44,2638.4 1220.56,1502.52 1220.55,1502.51 1220.55,1502.49 1220.54,1502.48 1220.53,1502.47 1220.52,1502.45 1220.51,1502.44 1220.51,1502.43 "/>
     <polygon id="_396796720" class="fil1" points="1215.6,1510.41 2351.48,2646.29 2350.08,2648.4 2348.64,2650.49 2347.17,2652.55 2345.66,2654.6 2344.13,2656.63 2342.56,2658.63 2340.95,2660.61 2339.31,2662.57 2337.64,2664.5 2335.94,2666.41 2334.2,2668.3 2332.43,2670.16 2330.63,2672 2328.8,2673.81 2326.93,2675.59 2325.03,2677.35 2323.1,2679.08 2321.14,2680.78 2319.15,2682.46 2317.12,2684.11 2315.07,2685.72 2312.98,2687.31 2310.86,2688.87 2308.71,2690.4 2306.53,2691.89 2304.32,2693.36 2302.08,2694.79 2299.81,2696.2 2297.51,2697.57 2295.18,2698.9 2292.81,2700.21 2290.42,2701.47 2288.01,2702.7 2285.58,2703.89 2283.15,2705.03 2280.7,2706.13 2278.24,2707.19 2275.78,2708.2 2273.31,2709.17 2270.83,2710.1 2268.34,2710.98 2265.84,2711.82 2263.34,2712.62 2260.83,2713.37 2258.32,2714.09 2255.8,2714.76 2253.27,2715.39 2250.74,2715.97 2248.21,2716.52 2245.68,2717.02 2243.14,2717.48 2240.6,2717.9 2238.05,2718.28 2235.51,2718.62 2232.96,2718.92 2230.41,2719.17 2227.87,2719.39 2225.32,2719.56 2222.77,2719.7 2220.23,2719.79 2217.69,2719.85 2215.15,2719.86 2212.61,2719.84 2210.07,2719.77 1074.19,1583.89 1076.73,1583.96 1079.27,1583.98 1081.81,1583.96 1084.35,1583.91 1086.89,1583.82 1089.44,1583.68 1091.99,1583.51 1094.53,1583.29 1097.08,1583.03 1099.63,1582.74 1102.17,1582.4 1104.71,1582.02 1107.26,1581.6 1109.8,1581.14 1112.33,1580.64 1114.86,1580.09 1117.39,1579.5 1119.92,1578.88 1122.44,1578.21 1124.95,1577.49 1127.46,1576.74 1129.96,1575.94 1132.46,1575.1 1134.95,1574.22 1137.43,1573.29 1139.9,1572.32 1142.36,1571.31 1144.82,1570.25 1147.26,1569.15 1149.7,1568.01 1152.13,1566.82 1154.54,1565.59 1156.93,1564.32 1159.29,1563.02 1161.63,1561.68 1163.93,1560.31 1166.2,1558.91 1168.44,1557.48 1170.65,1556.01 1172.83,1554.51 1174.98,1552.99 1177.1,1551.43 1179.19,1549.84 1181.24,1548.22 1183.27,1546.58 1185.26,1544.9 1187.22,1543.2 1189.15,1541.47 1191.05,1539.71 1192.91,1537.93 1194.75,1536.12 1196.55,1534.28 1198.32,1532.42 1200.06,1530.53 1201.76,1528.62 1203.43,1526.69 1205.07,1524.73 1206.67,1522.75 1208.25,1520.74 1209.78,1518.72 1211.29,1516.67 1212.76,1514.6 1214.2,1512.51 "/>
     <polygon id="_396799360" class="fil1" points="1220.56,1502.52 2356.44,2638.4 2351.54,2646.38 1215.66,1510.5 "/>
     <polygon id="_396800344" class="fil1" points="1074.19,1583.89 2210.07,2719.77 2210.08,2719.79 2210.08,2719.8 2210.09,2719.82 2210.09,2719.83 2210.1,2719.84 2210.11,2719.86 2210.11,2719.87 2210.12,2719.88 1074.23,1584 1074.23,1583.99 1074.22,1583.97 1074.22,1583.96 1074.21,1583.95 1074.21,1583.93 1074.2,1583.92 1074.2,1583.9 "/>
     <polygon id="_396821680" class="fil1" points="1064.95,1583.33 2200.83,2719.21 2195.84,2718.68 2190.87,2718 2185.92,2717.16 2181.01,2716.18 2176.13,2715.05 2171.3,2713.77 2166.5,2712.34 2161.75,2710.76 2157.05,2709.04 2152.4,2707.18 2147.81,2705.18 2143.28,2703.03 2138.82,2700.74 2134.42,2698.32 2130.09,2695.76 2125.84,2693.06 2121.67,2690.22 2117.58,2687.25 2113.57,2684.15 2109.65,2680.91 2105.83,2677.55 969.95,1541.66 973.774,1545.03 977.689,1548.26 981.695,1551.37 985.785,1554.34 989.959,1557.17 994.211,1559.87 998.538,1562.44 1002.94,1564.86 1007.4,1567.15 1011.93,1569.29 1016.52,1571.3 1021.17,1573.16 1025.87,1574.88 1030.62,1576.46 1035.42,1577.88 1040.25,1579.16 1045.13,1580.3 1050.04,1581.28 1054.99,1582.12 1059.96,1582.8 "/>
     <polygon id="_396818968" class="fil1" points="1074.23,1584 2210.12,2719.88 2200.88,2719.32 1064.99,1583.44 "/>
    </g>
    <path id="_478220776" class="fil1" d="M1331.92 1550.44l0 0zm-382.431 -832.15c66.7501,66.4583 185.86,184.864 305.048,303.351 81.3331,80.8524 162.789,161.828 303.487,301.908 15.261,15.1961 22.6713,35.4189 22.3217,55.7516 -0.34252,19.9866 -8.2382,40.1091 -23.5878,55.5308l-57.3591 57.6095 -56.2099 56.4556c-15.2929,15.3579 -35.3197,23.3126 -55.2603,23.7437 -20.3504,0.442914 -40.6595,-6.92008 -56.0174,-22.2095 -31.5036,-31.3654 -62.7178,-62.4567 -93.7288,-93.3568 -3.5941,15.874 -9.54804,31.174 -17.6847,45.3402 0.0212599,0.0318898 0.0425197,0.0661418 0.0649607,0.100394l-4.90158 7.97717 -0.0625985 -0.0885827c-14.7827,22.5992 -35.3929,41.8359 -61.0571,55.1847 -25.6996,13.3677 -53.3245,19.1977 -80.3505,18.2988 0.0153543,0.0389764 0.0295276,0.0755906 0.0437008,0.109843l-9.23977 -0.564567c-0.0153543,-0.0377953 -0.0295276,-0.0732284 -0.0437008,-0.108662 -53.3965,-4.82599 -103.292,-35.9138 -129.869,-87.0083 -26.5748,-51.091 -23.387,-109.787 3.31181,-156.275 0.790158,-1.37835 1.60158,-2.74488 2.44016,-4.09607 0.775985,-1.27913 1.57677,-2.5441 2.40236,-3.7937 14.7744,-22.6536 35.4154,-41.9256 61.1197,-55.2957 12.5445,-6.52441 25.5484,-11.2536 38.7166,-14.2807 -5.3067,-5.29252 -10.6134,-10.5839 -15.9201,-15.8752 -100.074,-99.7891 -200.113,-199.543 -303.159,-302.138 -10.7291,-10.741 -10.7185,-28.1481 0.022441,-38.8772 12.815,-12.8705 19.5461,-29.4603 20.1248,-45.965 0.536221,-15.3236 -4.23544,-30.5481 -14.3634,-42.5126 -0.500788,-0.590552 -1.01339,-1.17284 -1.53898,-1.74803l-2.54764 -2.5311 -250.008 -248.521c-10.7291,-10.7398 -10.7197,-28.1481 0.0212599,-38.876l28.3288 -28.4528 24.9295 -25.0394c10.741,-10.7291 28.1492,-10.7197 38.8772,0.0212599l250.107 248.609 2.49567 2.48032c2.66693,2.40118 5.51221,4.52481 8.49804,6.36733 10.6476,6.57284 23.0811,9.59765 35.5855,9.11103 16.6051,-0.646063 33.2433,-7.45867 46.0855,-20.3575 10.741,-10.7291 28.1492,-10.7197 38.8772,0.0212599z"/>
   </g>
  </g>
  <path class="fil2" d="M1024 0c565.539,0 1024,458.461 1024,1024 0,565.539 -458.461,1024 -1024,1024 -565.539,0 -1024,-458.461 -1024,-1024 0,-565.539 458.461,-1024 1024,-1024z"/>
  <path class="fil3" d="M724.015 905.687c12.8162,-12.8705 19.5473,-29.4603 20.1248,-45.9638 0.563386,-16.0819 -4.71851,-32.0528 -15.9,-44.2618l-252.556 -251.051c-10.7291,-10.741 -10.7197,-28.1492 0.0212599,-38.8784l53.2583 -53.4922c10.741,-10.728 28.1492,-10.7185 38.8772,0.022441l252.603 251.09c12.1784,10.9677 28.0725,16.1008 44.0847,15.4784 16.6039,-0.646063 33.2422,-7.45867 46.0843,-20.3575 10.741,-10.7291 28.1481,-10.7197 38.8772,0.0212599 66.7489,66.4595 185.858,184.864 305.048,303.351 81.3331,80.8524 162.789,161.828 303.486,301.908 15.2622,15.1961 22.6725,35.4201 22.3229,55.7516 -0.343701,19.9866 -8.23701,40.1091 -23.5878,55.5308l-113.565 114.062 -0.00236221 0.00354331c-15.2941,15.3591 -35.3209,23.3114 -55.2615,23.7437 -20.3492,0.441733 -40.6595,-6.92008 -56.0091,-22.2l-0.00826772 -0.0106299c-103.688,-103.233 -204.246,-203.503 -304.759,-303.731 -100.075,-99.7891 -200.112,-199.541 -303.159,-302.138 -10.7291,-10.741 -10.7197,-28.1492 0.0212599,-38.8772z"/>
  <line class="fil4" x1="1506.69" y1="1357.31" x2="1506.68" y2= "1357.3" />
  <path class="fil5" d="M1060.31 1053.36l-231.371 -323.843c-2.98583,-1.84134 -5.83111,-3.96496 -8.49804,-6.36615l-252.601 -251.091c-10.7303,-10.741 -28.1362,-10.7492 -38.8796,-0.0212599l-53.2571 53.4933c-10.741,10.728 -10.7504,28.1362 -0.0212599,38.876l252.555 251.052c0.525591,0.575197 1.03937,1.15748 1.53898,1.74803l330.534 236.152z"/>
  <path class="fil6" d="M817.948 720.671l-250.107 -248.61c-10.7303,-10.741 -28.1362,-10.7492 -38.8796,-0.0212599l-53.2571 53.4933c-10.741,10.728 -10.7504,28.1362 -0.0212599,38.876l250.008 248.519 92.2572 -92.2572z"/>
  <path class="fil7" d="M724.015 905.687c12.8173,-12.8705 19.5473,-29.4603 20.126,-45.9638 0.562205,-16.0819 -4.71969,-32.0528 -15.9024,-44.2618l-252.555 -251.052c-10.7291,-10.7398 -10.7197,-28.1481 0.0212599,-38.876l28.3288 -28.454 995.365 995.365 -56.2063 56.452 -0.00354331 0.00354331c-15.2929,15.3579 -35.3197,23.3114 -55.2603,23.7437 -20.3504,0.442914 -40.6595,-6.92008 -56.0091,-22.2l-0.00826772 -0.00944883c-103.687,-103.234 -204.246,-203.504 -304.759,-303.733 -100.075,-99.7891 -200.113,-199.543 -303.159,-302.138 -10.7291,-10.741 -10.7185,-28.1492 0.0212599,-38.8772z"/>
  <path class="fil8" d="M1060.31 1053.36l-0.00708662 -0.00944883 -556.271 -556.272 -28.3288 28.454c-10.741,10.728 -10.7504,28.1362 -0.0212599,38.876l252.555 251.052c0.525591,0.575197 1.03937,1.15748 1.53898,1.74803l330.534 236.152z"/>
  <path class="fil9" d="M504.033 497.079l-28.3288 28.454c-10.741,10.728 -10.7504,28.1362 -0.0212599,38.876l250.008 248.519 47.0953 -47.0953 -268.753 -268.754z"/>
  <circle class="fil10" transform="matrix(0.764126 -0.397463 -0.397463 -0.764126 1079.45 1421.22)" r="188.93"/>
  <path class="fil11" d="M1089.21 1258.77c-28.4504,-1.73622 -57.7217,3.97559 -84.8493,18.0862 -27.1276,14.1106 -48.6095,34.7988 -63.5221,59.0894 30.8599,47.5099 82.3123,69.8044 120.291,50.0504 37.9784,-19.7551 49.2638,-74.6835 28.0807,-127.226z"/>
  <path class="fil12" d="M938.394 1340.04c0.889371,1.37008 0.633071,0.954331 1.55315,2.28071 15.6791,22.591 35.9847,39.2185 57.1182,48.0118 22.5024,9.36142 45.9874,9.91654 66.0473,-0.517323 20.0599,-10.435 33.0886,-29.9811 38.3422,-53.7815 4.94528,-22.4067 2.96575,-48.6532 -6.59056,-74.5229 -0.537402,-1.45276 -0.318898,-0.940158 -0.903544,-2.39055l-9.34607 -0.56693c0.0791339,0.196063 0.77126,2.22284 0.850394,2.41654 10.1232,25.4162 12.4228,51.3284 7.59331,73.2107 -4.71142,21.3461 -16.2425,38.7969 -33.9213,47.9918 -17.6776,9.19607 -38.5866,8.61969 -58.7682,0.222047 -20.0988,-8.36339 -39.4488,-24.4181 -54.287,-46.304 -0.552756,-0.816142 -2.30315,-3.1063 -2.84528,-3.94016l-4.84252 7.88977z"/>
  <path class="fil11" d="M1154.54 1565.59c27.1276,-14.1106 48.6095,-34.7988 63.5221,-59.0894 -30.861,-47.5099 -82.3134,-69.8056 -120.292,-50.0504 -37.9784,19.7551 -49.2638,74.6823 -28.0795,127.226 28.4492,1.73622 57.7217,-3.97559 84.8493,-18.0862z"/>
  <path class="fil12" d="M1064.99 1583.44c-0.61063,-1.51417 -0.418111,-1.06536 -0.975591,-2.58189 -9.49489,-25.8071 -11.452,-51.978 -6.51851,-74.3292 5.25237,-23.8004 18.2811,-43.3477 38.3422,-53.7827 20.0599,-10.4339 43.5437,-9.87875 66.0473,-0.516142 21.1854,8.81457 41.5394,25.5036 57.2339,48.1807 0.881103,1.27323 0.585827,0.799607 1.43858,2.11181l-4.90158 7.97717c-0.115748,-0.177165 -1.37599,-1.90748 -1.49055,-2.08347 -14.9976,-22.8803 -34.8945,-39.639 -55.5839,-48.2481 -20.1827,-8.39764 -41.0906,-8.97402 -58.7693,0.220866 -17.6776,9.19607 -29.2099,26.6457 -33.9213,47.9918 -4.69134,21.2575 -2.65512,46.3181 6.74646,71.0316 0.350788,0.922442 1.22126,3.66969 1.59213,4.59213l-9.23977 -0.564567z"/>
  <path class="fil13" d="M1154.54 1565.59l0.0011811 -0.0011811 -150.186 -288.734 -0.0011811 0.0011811c-79.7316,41.4733 -110.747,139.728 -69.2741,219.46 41.4721,79.7316 139.728,110.747 219.46,69.2741z"/>
  <path class="fil14" d="M1004.36 1276.86l-0.0011811 0.0011811c-27.1276,14.1106 -48.6095,34.7988 -63.5221,59.0894 30.8599,47.5099 82.3123,69.8044 120.291,50.0504l0.00236221 -0.0011811 -56.7697 -109.14z"/>
  <path class="fil15" d="M938.394 1340.04c0.889371,1.37008 0.633071,0.954331 1.55315,2.28071 15.6791,22.591 35.9847,39.2185 57.1182,48.0118 22.5024,9.36142 45.9874,9.91654 66.0473,-0.517323l0.00236221 -0.0011811 -3.97559 -7.64292 -0.00236221 0.0011811c-17.6776,9.19607 -38.5866,8.61969 -58.7682,0.222047 -20.0988,-8.36339 -39.4488,-24.4181 -54.287,-46.304 -0.552756,-0.816142 -2.30315,-3.1063 -2.84528,-3.94016l-4.84252 7.88977z"/>
  <path class="fil14" d="M1154.54 1565.59l0.0011811 -0.0011811 -56.7685 -109.14 -0.00236221 0.0011811c-37.9784,19.7551 -49.2638,74.6823 -28.0795,127.226 28.4492,1.73622 57.7217,-3.97559 84.8493,-18.0862z"/>
  <path class="fil15" d="M1064.99 1583.44c-0.61063,-1.51417 -0.418111,-1.06536 -0.975591,-2.58189 -9.49489,-25.8071 -11.452,-51.978 -6.51851,-74.3292 5.25237,-23.8004 18.2811,-43.3477 38.3422,-53.7827l0.0011811 0 3.97559 7.64174 -0.00236221 0.0011811c-17.6776,9.19607 -29.2099,26.6457 -33.9213,47.9918 -4.69134,21.2575 -2.65512,46.3181 6.74646,71.0316 0.350788,0.922442 1.22126,3.66969 1.59213,4.59213l-9.23977 -0.564567z"/>
 </g>
</svg>
